<mxfile host="app.diagrams.net" modified="2023-11-06T22:04:55.422Z" agent="Mozilla/5.0 (Windows NT 10.0; Win64; x64; rv:120.0) Gecko/20100101 Firefox/120.0" etag="qEfeW7WLHs6Vo3-4rRlK" version="22.0.8" type="device">
  <diagram name="Page-1" id="nz_Y-_eUt13lYr9Y0NCU">
    <mxGraphModel dx="2684" dy="838" grid="1" gridSize="10" guides="1" tooltips="1" connect="1" arrows="1" fold="1" page="1" pageScale="1" pageWidth="850" pageHeight="1100" math="0" shadow="0">
      <root>
        <mxCell id="0" />
        <mxCell id="1" parent="0" />
        <mxCell id="g01qHE_QcyVIwGFeniVf-2" value="id" style="ellipse;whiteSpace=wrap;html=1;align=center;fontStyle=4;" vertex="1" parent="1">
          <mxGeometry x="-211.87" y="220" width="80" height="40" as="geometry" />
        </mxCell>
        <mxCell id="g01qHE_QcyVIwGFeniVf-3" value="USER" style="whiteSpace=wrap;html=1;align=center;" vertex="1" parent="1">
          <mxGeometry x="-80" y="400" width="80" height="40" as="geometry" />
        </mxCell>
        <mxCell id="g01qHE_QcyVIwGFeniVf-4" value="first_name" style="ellipse;whiteSpace=wrap;html=1;align=center;" vertex="1" parent="1">
          <mxGeometry x="-211.87" y="300" width="80" height="40" as="geometry" />
        </mxCell>
        <mxCell id="g01qHE_QcyVIwGFeniVf-5" value="username" style="ellipse;whiteSpace=wrap;html=1;align=center;" vertex="1" parent="1">
          <mxGeometry x="-206.87" y="380" width="80" height="40" as="geometry" />
        </mxCell>
        <mxCell id="g01qHE_QcyVIwGFeniVf-6" value="email" style="ellipse;whiteSpace=wrap;html=1;align=center;" vertex="1" parent="1">
          <mxGeometry x="-206.87" y="420" width="80" height="40" as="geometry" />
        </mxCell>
        <mxCell id="g01qHE_QcyVIwGFeniVf-8" value="password" style="ellipse;whiteSpace=wrap;html=1;align=center;" vertex="1" parent="1">
          <mxGeometry x="-206.87" y="500" width="80" height="40" as="geometry" />
        </mxCell>
        <mxCell id="g01qHE_QcyVIwGFeniVf-9" value="phone" style="ellipse;whiteSpace=wrap;html=1;align=center;" vertex="1" parent="1">
          <mxGeometry x="-206.87" y="460" width="80" height="40" as="geometry" />
        </mxCell>
        <mxCell id="g01qHE_QcyVIwGFeniVf-16" value="&lt;span style=&quot;border-bottom: 1px dotted&quot;&gt;user_role_id&lt;br&gt;&lt;/span&gt;" style="ellipse;whiteSpace=wrap;html=1;align=center;" vertex="1" parent="1">
          <mxGeometry x="-206.87" y="260" width="75" height="40" as="geometry" />
        </mxCell>
        <mxCell id="g01qHE_QcyVIwGFeniVf-17" value="USER_ROLE" style="whiteSpace=wrap;html=1;align=center;" vertex="1" parent="1">
          <mxGeometry x="240" y="400" width="80" height="40" as="geometry" />
        </mxCell>
        <mxCell id="g01qHE_QcyVIwGFeniVf-19" value="id" style="ellipse;whiteSpace=wrap;html=1;align=center;fontStyle=4;" vertex="1" parent="1">
          <mxGeometry x="240" y="320" width="40" height="40" as="geometry" />
        </mxCell>
        <mxCell id="g01qHE_QcyVIwGFeniVf-20" value="role" style="ellipse;whiteSpace=wrap;html=1;align=center;" vertex="1" parent="1">
          <mxGeometry x="280" y="320" width="40" height="40" as="geometry" />
        </mxCell>
        <mxCell id="g01qHE_QcyVIwGFeniVf-22" value="admin" style="ellipse;whiteSpace=wrap;html=1;align=center;" vertex="1" parent="1">
          <mxGeometry x="260" y="240" width="40" height="40" as="geometry" />
        </mxCell>
        <mxCell id="g01qHE_QcyVIwGFeniVf-23" value="client" style="ellipse;whiteSpace=wrap;html=1;align=center;" vertex="1" parent="1">
          <mxGeometry x="300" y="240" width="40" height="40" as="geometry" />
        </mxCell>
        <mxCell id="g01qHE_QcyVIwGFeniVf-38" value="" style="endArrow=none;html=1;rounded=0;exitX=0.5;exitY=1;exitDx=0;exitDy=0;entryX=0.5;entryY=0;entryDx=0;entryDy=0;" edge="1" parent="1" source="g01qHE_QcyVIwGFeniVf-22" target="g01qHE_QcyVIwGFeniVf-20">
          <mxGeometry relative="1" as="geometry">
            <mxPoint x="-70" y="520" as="sourcePoint" />
            <mxPoint x="90" y="520" as="targetPoint" />
          </mxGeometry>
        </mxCell>
        <mxCell id="g01qHE_QcyVIwGFeniVf-40" value="" style="endArrow=none;html=1;rounded=0;exitX=0.5;exitY=1;exitDx=0;exitDy=0;entryX=0.5;entryY=0;entryDx=0;entryDy=0;" edge="1" parent="1" source="g01qHE_QcyVIwGFeniVf-23" target="g01qHE_QcyVIwGFeniVf-20">
          <mxGeometry relative="1" as="geometry">
            <mxPoint x="310" y="290" as="sourcePoint" />
            <mxPoint x="350" y="320" as="targetPoint" />
          </mxGeometry>
        </mxCell>
        <mxCell id="g01qHE_QcyVIwGFeniVf-41" value="" style="endArrow=none;html=1;rounded=0;exitX=0.5;exitY=1;exitDx=0;exitDy=0;entryX=0.5;entryY=0;entryDx=0;entryDy=0;" edge="1" parent="1" source="g01qHE_QcyVIwGFeniVf-19" target="g01qHE_QcyVIwGFeniVf-17">
          <mxGeometry relative="1" as="geometry">
            <mxPoint x="210" y="310" as="sourcePoint" />
            <mxPoint x="250" y="350" as="targetPoint" />
          </mxGeometry>
        </mxCell>
        <mxCell id="g01qHE_QcyVIwGFeniVf-42" value="" style="endArrow=none;html=1;rounded=0;exitX=0.5;exitY=1;exitDx=0;exitDy=0;entryX=0.5;entryY=0;entryDx=0;entryDy=0;" edge="1" parent="1" source="g01qHE_QcyVIwGFeniVf-20" target="g01qHE_QcyVIwGFeniVf-17">
          <mxGeometry relative="1" as="geometry">
            <mxPoint x="250" y="320" as="sourcePoint" />
            <mxPoint x="280" y="360" as="targetPoint" />
          </mxGeometry>
        </mxCell>
        <mxCell id="g01qHE_QcyVIwGFeniVf-51" value="" style="shape=rhombus;perimeter=rhombusPerimeter;whiteSpace=wrap;html=1;align=center;" vertex="1" parent="1">
          <mxGeometry x="80" y="400" width="80" height="40" as="geometry" />
        </mxCell>
        <mxCell id="g01qHE_QcyVIwGFeniVf-53" value="" style="endArrow=none;html=1;rounded=0;exitX=0;exitY=0.5;exitDx=0;exitDy=0;entryX=1;entryY=0.5;entryDx=0;entryDy=0;" edge="1" parent="1" source="g01qHE_QcyVIwGFeniVf-51" target="g01qHE_QcyVIwGFeniVf-3">
          <mxGeometry relative="1" as="geometry">
            <mxPoint x="-7" y="370" as="sourcePoint" />
            <mxPoint x="-30" y="410" as="targetPoint" />
          </mxGeometry>
        </mxCell>
        <mxCell id="g01qHE_QcyVIwGFeniVf-56" value="M" style="edgeLabel;html=1;align=center;verticalAlign=middle;resizable=0;points=[];" vertex="1" connectable="0" parent="g01qHE_QcyVIwGFeniVf-53">
          <mxGeometry x="0.7" y="-1" relative="1" as="geometry">
            <mxPoint as="offset" />
          </mxGeometry>
        </mxCell>
        <mxCell id="g01qHE_QcyVIwGFeniVf-55" value="" style="endArrow=none;html=1;rounded=0;exitX=0;exitY=0.5;exitDx=0;exitDy=0;entryX=1;entryY=0.5;entryDx=0;entryDy=0;" edge="1" parent="1" source="g01qHE_QcyVIwGFeniVf-17" target="g01qHE_QcyVIwGFeniVf-51">
          <mxGeometry relative="1" as="geometry">
            <mxPoint x="90" y="430" as="sourcePoint" />
            <mxPoint x="10" y="430" as="targetPoint" />
          </mxGeometry>
        </mxCell>
        <mxCell id="g01qHE_QcyVIwGFeniVf-57" value="1" style="edgeLabel;html=1;align=center;verticalAlign=middle;resizable=0;points=[];" vertex="1" connectable="0" parent="g01qHE_QcyVIwGFeniVf-55">
          <mxGeometry x="-0.675" y="1" relative="1" as="geometry">
            <mxPoint as="offset" />
          </mxGeometry>
        </mxCell>
        <mxCell id="g01qHE_QcyVIwGFeniVf-58" value="BOOK_CATEGORY" style="whiteSpace=wrap;html=1;align=center;" vertex="1" parent="1">
          <mxGeometry x="240" y="880" width="120" height="40" as="geometry" />
        </mxCell>
        <mxCell id="g01qHE_QcyVIwGFeniVf-62" value="AUTHOR" style="whiteSpace=wrap;html=1;align=center;" vertex="1" parent="1">
          <mxGeometry x="-80" y="1120" width="80" height="40" as="geometry" />
        </mxCell>
        <mxCell id="g01qHE_QcyVIwGFeniVf-67" value="id" style="ellipse;whiteSpace=wrap;html=1;align=center;fontStyle=4;" vertex="1" parent="1">
          <mxGeometry x="-200" y="1200" width="50" height="40" as="geometry" />
        </mxCell>
        <mxCell id="g01qHE_QcyVIwGFeniVf-68" value="biography" style="ellipse;whiteSpace=wrap;html=1;align=center;" vertex="1" parent="1">
          <mxGeometry y="1200" width="70" height="40" as="geometry" />
        </mxCell>
        <mxCell id="g01qHE_QcyVIwGFeniVf-78" value="id" style="ellipse;whiteSpace=wrap;html=1;align=center;fontStyle=4;" vertex="1" parent="1">
          <mxGeometry x="-214.37" y="720" width="100" height="40" as="geometry" />
        </mxCell>
        <mxCell id="g01qHE_QcyVIwGFeniVf-80" value="title" style="ellipse;whiteSpace=wrap;html=1;align=center;" vertex="1" parent="1">
          <mxGeometry x="-214.37" y="840" width="97.5" height="40" as="geometry" />
        </mxCell>
        <mxCell id="g01qHE_QcyVIwGFeniVf-84" value="&lt;span style=&quot;border-bottom: 1px dotted&quot;&gt;author_id&lt;br&gt;&lt;/span&gt;" style="ellipse;whiteSpace=wrap;html=1;align=center;" vertex="1" parent="1">
          <mxGeometry x="-214.37" y="760" width="100" height="40" as="geometry" />
        </mxCell>
        <mxCell id="g01qHE_QcyVIwGFeniVf-85" value="publication_year" style="ellipse;whiteSpace=wrap;html=1;align=center;" vertex="1" parent="1">
          <mxGeometry x="-215.62" y="920" width="100" height="40" as="geometry" />
        </mxCell>
        <mxCell id="g01qHE_QcyVIwGFeniVf-86" value="img_url" style="ellipse;whiteSpace=wrap;html=1;align=center;" vertex="1" parent="1">
          <mxGeometry x="-215.62" y="960" width="100" height="40" as="geometry" />
        </mxCell>
        <mxCell id="g01qHE_QcyVIwGFeniVf-89" style="edgeStyle=orthogonalEdgeStyle;rounded=0;orthogonalLoop=1;jettySize=auto;html=1;entryX=0;entryY=0.5;entryDx=0;entryDy=0;exitX=0;exitY=0;exitDx=100;exitDy=20;exitPerimeter=0;" edge="1" parent="1" source="g01qHE_QcyVIwGFeniVf-88" target="g01qHE_QcyVIwGFeniVf-84">
          <mxGeometry relative="1" as="geometry">
            <mxPoint x="-260" y="720" as="sourcePoint" />
          </mxGeometry>
        </mxCell>
        <mxCell id="g01qHE_QcyVIwGFeniVf-88" value="AUTHOR" style="shape=note;size=20;whiteSpace=wrap;html=1;" vertex="1" parent="1">
          <mxGeometry x="-420" y="760" width="100" height="40" as="geometry" />
        </mxCell>
        <mxCell id="g01qHE_QcyVIwGFeniVf-91" value="&lt;span style=&quot;border-bottom: 1px dotted&quot;&gt;category_id&lt;br&gt;&lt;/span&gt;" style="ellipse;whiteSpace=wrap;html=1;align=center;" vertex="1" parent="1">
          <mxGeometry x="-214.37" y="800" width="100" height="40" as="geometry" />
        </mxCell>
        <mxCell id="g01qHE_QcyVIwGFeniVf-92" value="BOOK" style="whiteSpace=wrap;html=1;align=center;" vertex="1" parent="1">
          <mxGeometry x="-80" y="880" width="80" height="40" as="geometry" />
        </mxCell>
        <mxCell id="g01qHE_QcyVIwGFeniVf-93" value="id" style="ellipse;whiteSpace=wrap;html=1;align=center;fontStyle=4;" vertex="1" parent="1">
          <mxGeometry x="220" y="800" width="52.5" height="40" as="geometry" />
        </mxCell>
        <mxCell id="g01qHE_QcyVIwGFeniVf-94" value="category" style="ellipse;whiteSpace=wrap;html=1;align=center;" vertex="1" parent="1">
          <mxGeometry x="272.5" y="800" width="55" height="40" as="geometry" />
        </mxCell>
        <mxCell id="g01qHE_QcyVIwGFeniVf-95" value="" style="endArrow=none;html=1;rounded=0;exitX=0.5;exitY=0;exitDx=0;exitDy=0;entryX=0.5;entryY=1;entryDx=0;entryDy=0;" edge="1" parent="1" source="g01qHE_QcyVIwGFeniVf-58" target="g01qHE_QcyVIwGFeniVf-93">
          <mxGeometry relative="1" as="geometry">
            <mxPoint x="170" y="1015" as="sourcePoint" />
            <mxPoint x="210" y="945" as="targetPoint" />
          </mxGeometry>
        </mxCell>
        <mxCell id="g01qHE_QcyVIwGFeniVf-96" value="" style="endArrow=none;html=1;rounded=0;entryX=0.5;entryY=1;entryDx=0;entryDy=0;exitX=0.5;exitY=0;exitDx=0;exitDy=0;" edge="1" parent="1" source="g01qHE_QcyVIwGFeniVf-58" target="g01qHE_QcyVIwGFeniVf-94">
          <mxGeometry relative="1" as="geometry">
            <mxPoint x="300" y="860" as="sourcePoint" />
            <mxPoint x="285" y="850" as="targetPoint" />
          </mxGeometry>
        </mxCell>
        <mxCell id="g01qHE_QcyVIwGFeniVf-97" value="" style="shape=rhombus;perimeter=rhombusPerimeter;whiteSpace=wrap;html=1;align=center;" vertex="1" parent="1">
          <mxGeometry x="70" y="880" width="80" height="40" as="geometry" />
        </mxCell>
        <mxCell id="g01qHE_QcyVIwGFeniVf-102" value="" style="endArrow=none;html=1;rounded=0;exitX=1;exitY=0.5;exitDx=0;exitDy=0;entryX=0;entryY=0.5;entryDx=0;entryDy=0;" edge="1" parent="1" source="g01qHE_QcyVIwGFeniVf-92" target="g01qHE_QcyVIwGFeniVf-97">
          <mxGeometry relative="1" as="geometry">
            <mxPoint x="-30" y="710" as="sourcePoint" />
            <mxPoint x="130" y="710" as="targetPoint" />
          </mxGeometry>
        </mxCell>
        <mxCell id="g01qHE_QcyVIwGFeniVf-104" value="M" style="edgeLabel;html=1;align=center;verticalAlign=middle;resizable=0;points=[];" vertex="1" connectable="0" parent="g01qHE_QcyVIwGFeniVf-102">
          <mxGeometry x="-0.7" relative="1" as="geometry">
            <mxPoint as="offset" />
          </mxGeometry>
        </mxCell>
        <mxCell id="g01qHE_QcyVIwGFeniVf-103" value="" style="endArrow=none;html=1;rounded=0;entryX=0;entryY=0.5;entryDx=0;entryDy=0;exitX=1;exitY=0.5;exitDx=0;exitDy=0;" edge="1" parent="1" source="g01qHE_QcyVIwGFeniVf-97" target="g01qHE_QcyVIwGFeniVf-58">
          <mxGeometry relative="1" as="geometry">
            <mxPoint x="170" y="890" as="sourcePoint" />
            <mxPoint x="90" y="870" as="targetPoint" />
          </mxGeometry>
        </mxCell>
        <mxCell id="g01qHE_QcyVIwGFeniVf-105" value="1" style="edgeLabel;html=1;align=center;verticalAlign=middle;resizable=0;points=[];" vertex="1" connectable="0" parent="g01qHE_QcyVIwGFeniVf-103">
          <mxGeometry x="0.7" relative="1" as="geometry">
            <mxPoint as="offset" />
          </mxGeometry>
        </mxCell>
        <mxCell id="g01qHE_QcyVIwGFeniVf-106" value="is_deleted" style="ellipse;whiteSpace=wrap;html=1;align=center;" vertex="1" parent="1">
          <mxGeometry x="-215.62" y="1000" width="100" height="40" as="geometry" />
        </mxCell>
        <mxCell id="g01qHE_QcyVIwGFeniVf-107" value="is_deleted" style="ellipse;whiteSpace=wrap;html=1;align=center;" vertex="1" parent="1">
          <mxGeometry x="327.5" y="800" width="62.5" height="40" as="geometry" />
        </mxCell>
        <mxCell id="g01qHE_QcyVIwGFeniVf-108" value="" style="endArrow=none;html=1;rounded=0;entryX=0.5;entryY=1;entryDx=0;entryDy=0;exitX=0.5;exitY=0;exitDx=0;exitDy=0;" edge="1" parent="1" source="g01qHE_QcyVIwGFeniVf-58" target="g01qHE_QcyVIwGFeniVf-107">
          <mxGeometry relative="1" as="geometry">
            <mxPoint x="310" y="860" as="sourcePoint" />
            <mxPoint x="300" y="850" as="targetPoint" />
          </mxGeometry>
        </mxCell>
        <mxCell id="g01qHE_QcyVIwGFeniVf-109" value="is_deleted" style="ellipse;whiteSpace=wrap;html=1;align=center;" vertex="1" parent="1">
          <mxGeometry x="70" y="1200" width="70" height="40" as="geometry" />
        </mxCell>
        <mxCell id="g01qHE_QcyVIwGFeniVf-111" value="created_at" style="ellipse;whiteSpace=wrap;html=1;align=center;" vertex="1" parent="1">
          <mxGeometry x="-215.62" y="1040" width="100" height="40" as="geometry" />
        </mxCell>
        <mxCell id="g01qHE_QcyVIwGFeniVf-112" value="created_at" style="ellipse;whiteSpace=wrap;html=1;align=center;" vertex="1" parent="1">
          <mxGeometry x="-206.87" y="540" width="80" height="40" as="geometry" />
        </mxCell>
        <mxCell id="g01qHE_QcyVIwGFeniVf-113" value="BOOK_COMMENT" style="whiteSpace=wrap;html=1;align=center;" vertex="1" parent="1">
          <mxGeometry x="-100" y="640" width="120" height="40" as="geometry" />
        </mxCell>
        <mxCell id="g01qHE_QcyVIwGFeniVf-114" value="id" style="ellipse;whiteSpace=wrap;html=1;align=center;fontStyle=4;" vertex="1" parent="1">
          <mxGeometry x="80" y="540" width="65" height="40" as="geometry" />
        </mxCell>
        <mxCell id="g01qHE_QcyVIwGFeniVf-117" value="created_at" style="ellipse;whiteSpace=wrap;html=1;align=center;" vertex="1" parent="1">
          <mxGeometry x="80" y="740" width="65" height="40" as="geometry" />
        </mxCell>
        <mxCell id="g01qHE_QcyVIwGFeniVf-120" value="comment" style="ellipse;whiteSpace=wrap;html=1;align=center;" vertex="1" parent="1">
          <mxGeometry x="80" y="660" width="65" height="40" as="geometry" />
        </mxCell>
        <mxCell id="g01qHE_QcyVIwGFeniVf-121" value="&lt;span style=&quot;border-bottom: 1px dotted&quot;&gt;user_id&lt;br&gt;&lt;/span&gt;" style="ellipse;whiteSpace=wrap;html=1;align=center;" vertex="1" parent="1">
          <mxGeometry x="80" y="580" width="65" height="40" as="geometry" />
        </mxCell>
        <mxCell id="g01qHE_QcyVIwGFeniVf-124" value="&lt;span style=&quot;border-bottom: 1px dotted&quot;&gt;book_id&lt;br&gt;&lt;/span&gt;" style="ellipse;whiteSpace=wrap;html=1;align=center;" vertex="1" parent="1">
          <mxGeometry x="80" y="620" width="65" height="40" as="geometry" />
        </mxCell>
        <mxCell id="g01qHE_QcyVIwGFeniVf-125" value="" style="shape=rhombus;perimeter=rhombusPerimeter;whiteSpace=wrap;html=1;align=center;" vertex="1" parent="1">
          <mxGeometry x="-80" y="520" width="80" height="40" as="geometry" />
        </mxCell>
        <mxCell id="g01qHE_QcyVIwGFeniVf-126" value="" style="shape=rhombus;perimeter=rhombusPerimeter;whiteSpace=wrap;html=1;align=center;" vertex="1" parent="1">
          <mxGeometry x="-80" y="760" width="80" height="40" as="geometry" />
        </mxCell>
        <mxCell id="g01qHE_QcyVIwGFeniVf-129" value="" style="endArrow=none;html=1;rounded=0;exitX=0.5;exitY=1;exitDx=0;exitDy=0;entryX=0.5;entryY=0;entryDx=0;entryDy=0;" edge="1" parent="1" source="g01qHE_QcyVIwGFeniVf-3" target="g01qHE_QcyVIwGFeniVf-125">
          <mxGeometry relative="1" as="geometry">
            <mxPoint x="-30" y="540" as="sourcePoint" />
            <mxPoint x="130" y="540" as="targetPoint" />
          </mxGeometry>
        </mxCell>
        <mxCell id="g01qHE_QcyVIwGFeniVf-130" value="" style="endArrow=none;html=1;rounded=0;exitX=0.5;exitY=1;exitDx=0;exitDy=0;entryX=0.5;entryY=0;entryDx=0;entryDy=0;" edge="1" parent="1" source="g01qHE_QcyVIwGFeniVf-125" target="g01qHE_QcyVIwGFeniVf-113">
          <mxGeometry relative="1" as="geometry">
            <mxPoint x="-30" y="450" as="sourcePoint" />
            <mxPoint x="-30" y="530" as="targetPoint" />
          </mxGeometry>
        </mxCell>
        <mxCell id="g01qHE_QcyVIwGFeniVf-131" value="" style="endArrow=none;html=1;rounded=0;exitX=0.5;exitY=0;exitDx=0;exitDy=0;entryX=0.5;entryY=1;entryDx=0;entryDy=0;" edge="1" parent="1" source="g01qHE_QcyVIwGFeniVf-126" target="g01qHE_QcyVIwGFeniVf-113">
          <mxGeometry relative="1" as="geometry">
            <mxPoint x="-30" y="570" as="sourcePoint" />
            <mxPoint x="-50" y="710" as="targetPoint" />
          </mxGeometry>
        </mxCell>
        <mxCell id="g01qHE_QcyVIwGFeniVf-132" value="" style="endArrow=none;html=1;rounded=0;exitX=0.5;exitY=0;exitDx=0;exitDy=0;entryX=0.5;entryY=1;entryDx=0;entryDy=0;" edge="1" parent="1" source="g01qHE_QcyVIwGFeniVf-92" target="g01qHE_QcyVIwGFeniVf-126">
          <mxGeometry relative="1" as="geometry">
            <mxPoint x="-30" y="770" as="sourcePoint" />
            <mxPoint x="10" y="820" as="targetPoint" />
          </mxGeometry>
        </mxCell>
        <mxCell id="g01qHE_QcyVIwGFeniVf-133" value="" style="endArrow=none;html=1;rounded=0;exitX=1;exitY=0.5;exitDx=0;exitDy=0;entryX=0;entryY=0;entryDx=0;entryDy=0;" edge="1" parent="1" source="g01qHE_QcyVIwGFeniVf-2" target="g01qHE_QcyVIwGFeniVf-3">
          <mxGeometry relative="1" as="geometry">
            <mxPoint x="40" y="130" as="sourcePoint" />
            <mxPoint x="-30" y="170" as="targetPoint" />
          </mxGeometry>
        </mxCell>
        <mxCell id="g01qHE_QcyVIwGFeniVf-134" value="" style="endArrow=none;html=1;rounded=0;exitX=1;exitY=0.5;exitDx=0;exitDy=0;entryX=0;entryY=0;entryDx=0;entryDy=0;" edge="1" parent="1" source="g01qHE_QcyVIwGFeniVf-16" target="g01qHE_QcyVIwGFeniVf-3">
          <mxGeometry relative="1" as="geometry">
            <mxPoint x="-115" y="290" as="sourcePoint" />
            <mxPoint x="-90" y="410" as="targetPoint" />
          </mxGeometry>
        </mxCell>
        <mxCell id="g01qHE_QcyVIwGFeniVf-135" value="" style="endArrow=none;html=1;rounded=0;exitX=1;exitY=0.5;exitDx=0;exitDy=0;entryX=0;entryY=0.25;entryDx=0;entryDy=0;" edge="1" parent="1" source="g01qHE_QcyVIwGFeniVf-4" target="g01qHE_QcyVIwGFeniVf-3">
          <mxGeometry relative="1" as="geometry">
            <mxPoint x="-115" y="330" as="sourcePoint" />
            <mxPoint x="-90" y="430" as="targetPoint" />
          </mxGeometry>
        </mxCell>
        <mxCell id="g01qHE_QcyVIwGFeniVf-136" value="" style="endArrow=none;html=1;rounded=0;exitX=1;exitY=0.5;exitDx=0;exitDy=0;entryX=0;entryY=0.5;entryDx=0;entryDy=0;" edge="1" parent="1" source="g01qHE_QcyVIwGFeniVf-5" target="g01qHE_QcyVIwGFeniVf-3">
          <mxGeometry relative="1" as="geometry">
            <mxPoint x="-124.37" y="430" as="sourcePoint" />
            <mxPoint x="-89.37" y="480" as="targetPoint" />
          </mxGeometry>
        </mxCell>
        <mxCell id="g01qHE_QcyVIwGFeniVf-137" value="" style="endArrow=none;html=1;rounded=0;exitX=1;exitY=0.5;exitDx=0;exitDy=0;entryX=0;entryY=0.5;entryDx=0;entryDy=0;" edge="1" parent="1" source="g01qHE_QcyVIwGFeniVf-6" target="g01qHE_QcyVIwGFeniVf-3">
          <mxGeometry relative="1" as="geometry">
            <mxPoint x="-124.37" y="470" as="sourcePoint" />
            <mxPoint x="-89.37" y="480" as="targetPoint" />
          </mxGeometry>
        </mxCell>
        <mxCell id="g01qHE_QcyVIwGFeniVf-138" value="" style="endArrow=none;html=1;rounded=0;exitX=1;exitY=0.5;exitDx=0;exitDy=0;entryX=0;entryY=1;entryDx=0;entryDy=0;" edge="1" parent="1" source="g01qHE_QcyVIwGFeniVf-9" target="g01qHE_QcyVIwGFeniVf-3">
          <mxGeometry relative="1" as="geometry">
            <mxPoint x="-124.37" y="510" as="sourcePoint" />
            <mxPoint x="-89.37" y="500" as="targetPoint" />
          </mxGeometry>
        </mxCell>
        <mxCell id="g01qHE_QcyVIwGFeniVf-139" value="" style="endArrow=none;html=1;rounded=0;exitX=1;exitY=0.5;exitDx=0;exitDy=0;entryX=0;entryY=1;entryDx=0;entryDy=0;" edge="1" parent="1" source="g01qHE_QcyVIwGFeniVf-112" target="g01qHE_QcyVIwGFeniVf-3">
          <mxGeometry relative="1" as="geometry">
            <mxPoint x="-124.37" y="550" as="sourcePoint" />
            <mxPoint x="-89.37" y="500" as="targetPoint" />
          </mxGeometry>
        </mxCell>
        <mxCell id="g01qHE_QcyVIwGFeniVf-140" value="" style="endArrow=none;html=1;rounded=0;entryX=0;entryY=1;entryDx=0;entryDy=0;exitX=1;exitY=0.5;exitDx=0;exitDy=0;" edge="1" parent="1" source="g01qHE_QcyVIwGFeniVf-8" target="g01qHE_QcyVIwGFeniVf-3">
          <mxGeometry relative="1" as="geometry">
            <mxPoint x="-100" y="550" as="sourcePoint" />
            <mxPoint x="-89.37" y="500" as="targetPoint" />
          </mxGeometry>
        </mxCell>
        <mxCell id="g01qHE_QcyVIwGFeniVf-141" value="" style="endArrow=none;html=1;rounded=0;exitX=0;exitY=0.5;exitDx=0;exitDy=0;entryX=1;entryY=0.5;entryDx=0;entryDy=0;" edge="1" parent="1" source="g01qHE_QcyVIwGFeniVf-124" target="g01qHE_QcyVIwGFeniVf-113">
          <mxGeometry relative="1" as="geometry">
            <mxPoint x="-115" y="570" as="sourcePoint" />
            <mxPoint x="-70" y="450" as="targetPoint" />
          </mxGeometry>
        </mxCell>
        <mxCell id="g01qHE_QcyVIwGFeniVf-142" value="" style="endArrow=none;html=1;rounded=0;exitX=0;exitY=0.5;exitDx=0;exitDy=0;entryX=1;entryY=0.25;entryDx=0;entryDy=0;" edge="1" parent="1" source="g01qHE_QcyVIwGFeniVf-114" target="g01qHE_QcyVIwGFeniVf-113">
          <mxGeometry relative="1" as="geometry">
            <mxPoint x="75" y="670" as="sourcePoint" />
            <mxPoint x="30" y="670" as="targetPoint" />
          </mxGeometry>
        </mxCell>
        <mxCell id="g01qHE_QcyVIwGFeniVf-143" value="" style="endArrow=none;html=1;rounded=0;exitX=0;exitY=0.5;exitDx=0;exitDy=0;entryX=1;entryY=0.25;entryDx=0;entryDy=0;" edge="1" parent="1" source="g01qHE_QcyVIwGFeniVf-121" target="g01qHE_QcyVIwGFeniVf-113">
          <mxGeometry relative="1" as="geometry">
            <mxPoint x="75" y="590" as="sourcePoint" />
            <mxPoint x="30" y="660" as="targetPoint" />
          </mxGeometry>
        </mxCell>
        <mxCell id="g01qHE_QcyVIwGFeniVf-144" value="" style="endArrow=none;html=1;rounded=0;exitX=0;exitY=0.5;exitDx=0;exitDy=0;entryX=1;entryY=0.75;entryDx=0;entryDy=0;" edge="1" parent="1" source="g01qHE_QcyVIwGFeniVf-117" target="g01qHE_QcyVIwGFeniVf-113">
          <mxGeometry relative="1" as="geometry">
            <mxPoint x="75" y="630" as="sourcePoint" />
            <mxPoint x="30" y="660" as="targetPoint" />
          </mxGeometry>
        </mxCell>
        <mxCell id="g01qHE_QcyVIwGFeniVf-145" value="" style="endArrow=none;html=1;rounded=0;entryX=1;entryY=0.5;entryDx=0;entryDy=0;exitX=0;exitY=0.5;exitDx=0;exitDy=0;" edge="1" parent="1" source="g01qHE_QcyVIwGFeniVf-120" target="g01qHE_QcyVIwGFeniVf-113">
          <mxGeometry relative="1" as="geometry">
            <mxPoint x="70" y="670" as="sourcePoint" />
            <mxPoint x="60" y="670" as="targetPoint" />
          </mxGeometry>
        </mxCell>
        <mxCell id="g01qHE_QcyVIwGFeniVf-146" value="approved" style="ellipse;whiteSpace=wrap;html=1;align=center;" vertex="1" parent="1">
          <mxGeometry x="80" y="700" width="65" height="40" as="geometry" />
        </mxCell>
        <mxCell id="g01qHE_QcyVIwGFeniVf-148" value="" style="endArrow=none;html=1;rounded=0;exitX=0;exitY=0.5;exitDx=0;exitDy=0;entryX=1;entryY=0.75;entryDx=0;entryDy=0;" edge="1" parent="1" source="g01qHE_QcyVIwGFeniVf-146" target="g01qHE_QcyVIwGFeniVf-113">
          <mxGeometry relative="1" as="geometry">
            <mxPoint x="90" y="770" as="sourcePoint" />
            <mxPoint x="30" y="680" as="targetPoint" />
          </mxGeometry>
        </mxCell>
        <mxCell id="g01qHE_QcyVIwGFeniVf-149" value="" style="endArrow=none;html=1;rounded=0;exitX=0;exitY=0;exitDx=0;exitDy=0;entryX=1;entryY=0.5;entryDx=0;entryDy=0;" edge="1" parent="1" source="g01qHE_QcyVIwGFeniVf-92" target="g01qHE_QcyVIwGFeniVf-78">
          <mxGeometry relative="1" as="geometry">
            <mxPoint x="90" y="770" as="sourcePoint" />
            <mxPoint x="30" y="680" as="targetPoint" />
          </mxGeometry>
        </mxCell>
        <mxCell id="g01qHE_QcyVIwGFeniVf-150" value="is_deleted" style="ellipse;whiteSpace=wrap;html=1;align=center;" vertex="1" parent="1">
          <mxGeometry x="77.5" y="780" width="70" height="40" as="geometry" />
        </mxCell>
        <mxCell id="g01qHE_QcyVIwGFeniVf-151" value="" style="endArrow=none;html=1;rounded=0;entryX=1;entryY=0.5;entryDx=0;entryDy=0;exitX=0;exitY=0;exitDx=0;exitDy=0;" edge="1" parent="1" source="g01qHE_QcyVIwGFeniVf-92" target="g01qHE_QcyVIwGFeniVf-84">
          <mxGeometry relative="1" as="geometry">
            <mxPoint x="-100" y="910" as="sourcePoint" />
            <mxPoint x="-110" y="770" as="targetPoint" />
          </mxGeometry>
        </mxCell>
        <mxCell id="g01qHE_QcyVIwGFeniVf-152" value="" style="endArrow=none;html=1;rounded=0;exitX=0;exitY=0;exitDx=0;exitDy=0;entryX=1;entryY=0.5;entryDx=0;entryDy=0;" edge="1" parent="1" source="g01qHE_QcyVIwGFeniVf-92" target="g01qHE_QcyVIwGFeniVf-91">
          <mxGeometry relative="1" as="geometry">
            <mxPoint x="-60" y="900" as="sourcePoint" />
            <mxPoint x="-100" y="780" as="targetPoint" />
          </mxGeometry>
        </mxCell>
        <mxCell id="g01qHE_QcyVIwGFeniVf-153" value="" style="endArrow=none;html=1;rounded=0;exitX=0;exitY=0.5;exitDx=0;exitDy=0;entryX=1;entryY=0.5;entryDx=0;entryDy=0;" edge="1" parent="1" source="g01qHE_QcyVIwGFeniVf-92" target="g01qHE_QcyVIwGFeniVf-80">
          <mxGeometry relative="1" as="geometry">
            <mxPoint x="-70" y="900" as="sourcePoint" />
            <mxPoint x="-110" y="850" as="targetPoint" />
          </mxGeometry>
        </mxCell>
        <mxCell id="g01qHE_QcyVIwGFeniVf-154" value="" style="endArrow=none;html=1;rounded=0;exitX=0;exitY=0.5;exitDx=0;exitDy=0;entryX=1;entryY=0.5;entryDx=0;entryDy=0;" edge="1" parent="1" source="g01qHE_QcyVIwGFeniVf-92" target="g01qHE_QcyVIwGFeniVf-85">
          <mxGeometry relative="1" as="geometry">
            <mxPoint x="-70" y="910" as="sourcePoint" />
            <mxPoint x="-112" y="890" as="targetPoint" />
          </mxGeometry>
        </mxCell>
        <mxCell id="g01qHE_QcyVIwGFeniVf-155" value="" style="endArrow=none;html=1;rounded=0;exitX=0;exitY=1;exitDx=0;exitDy=0;entryX=1;entryY=0.5;entryDx=0;entryDy=0;" edge="1" parent="1" source="g01qHE_QcyVIwGFeniVf-92" target="g01qHE_QcyVIwGFeniVf-111">
          <mxGeometry relative="1" as="geometry">
            <mxPoint x="-70" y="910" as="sourcePoint" />
            <mxPoint x="-110" y="930" as="targetPoint" />
          </mxGeometry>
        </mxCell>
        <mxCell id="g01qHE_QcyVIwGFeniVf-156" value="" style="endArrow=none;html=1;rounded=0;exitX=0;exitY=1;exitDx=0;exitDy=0;entryX=1;entryY=0.5;entryDx=0;entryDy=0;" edge="1" parent="1" source="g01qHE_QcyVIwGFeniVf-92" target="g01qHE_QcyVIwGFeniVf-106">
          <mxGeometry relative="1" as="geometry">
            <mxPoint x="-70" y="930" as="sourcePoint" />
            <mxPoint x="-110" y="1050" as="targetPoint" />
          </mxGeometry>
        </mxCell>
        <mxCell id="g01qHE_QcyVIwGFeniVf-157" value="" style="endArrow=none;html=1;rounded=0;exitX=0;exitY=1;exitDx=0;exitDy=0;entryX=1;entryY=0.5;entryDx=0;entryDy=0;" edge="1" parent="1" source="g01qHE_QcyVIwGFeniVf-92" target="g01qHE_QcyVIwGFeniVf-86">
          <mxGeometry relative="1" as="geometry">
            <mxPoint x="-70" y="930" as="sourcePoint" />
            <mxPoint x="-110" y="1010" as="targetPoint" />
          </mxGeometry>
        </mxCell>
        <mxCell id="g01qHE_QcyVIwGFeniVf-158" value="pages_number" style="ellipse;whiteSpace=wrap;html=1;align=center;" vertex="1" parent="1">
          <mxGeometry x="-211.87" y="880" width="97.5" height="40" as="geometry" />
        </mxCell>
        <mxCell id="g01qHE_QcyVIwGFeniVf-159" value="" style="endArrow=none;html=1;rounded=0;exitX=0;exitY=0.5;exitDx=0;exitDy=0;entryX=1;entryY=0.5;entryDx=0;entryDy=0;" edge="1" parent="1" source="g01qHE_QcyVIwGFeniVf-92" target="g01qHE_QcyVIwGFeniVf-158">
          <mxGeometry relative="1" as="geometry">
            <mxPoint x="-70" y="910" as="sourcePoint" />
            <mxPoint x="-112" y="890" as="targetPoint" />
          </mxGeometry>
        </mxCell>
        <mxCell id="g01qHE_QcyVIwGFeniVf-160" value="first_name" style="ellipse;whiteSpace=wrap;html=1;align=center;" vertex="1" parent="1">
          <mxGeometry x="-150" y="1200" width="70" height="40" as="geometry" />
        </mxCell>
        <mxCell id="g01qHE_QcyVIwGFeniVf-162" value="" style="shape=rhombus;perimeter=rhombusPerimeter;whiteSpace=wrap;html=1;align=center;" vertex="1" parent="1">
          <mxGeometry x="-80" y="1000" width="80" height="40" as="geometry" />
        </mxCell>
        <mxCell id="g01qHE_QcyVIwGFeniVf-163" value="" style="endArrow=none;html=1;rounded=0;exitX=0.5;exitY=1;exitDx=0;exitDy=0;entryX=0.5;entryY=0;entryDx=0;entryDy=0;" edge="1" parent="1" source="g01qHE_QcyVIwGFeniVf-92" target="g01qHE_QcyVIwGFeniVf-162">
          <mxGeometry relative="1" as="geometry">
            <mxPoint x="-15" y="1280" as="sourcePoint" />
            <mxPoint x="89.99999999999977" y="1320" as="targetPoint" />
          </mxGeometry>
        </mxCell>
        <mxCell id="g01qHE_QcyVIwGFeniVf-164" value="" style="endArrow=none;html=1;rounded=0;exitX=0.5;exitY=1;exitDx=0;exitDy=0;entryX=0.5;entryY=0;entryDx=0;entryDy=0;" edge="1" parent="1" source="g01qHE_QcyVIwGFeniVf-162" target="g01qHE_QcyVIwGFeniVf-62">
          <mxGeometry relative="1" as="geometry">
            <mxPoint x="-30" y="930" as="sourcePoint" />
            <mxPoint x="-30" y="1010" as="targetPoint" />
          </mxGeometry>
        </mxCell>
        <mxCell id="g01qHE_QcyVIwGFeniVf-165" value="" style="endArrow=none;html=1;rounded=0;exitX=0.5;exitY=0;exitDx=0;exitDy=0;entryX=0.75;entryY=1;entryDx=0;entryDy=0;" edge="1" parent="1" source="g01qHE_QcyVIwGFeniVf-109" target="g01qHE_QcyVIwGFeniVf-62">
          <mxGeometry relative="1" as="geometry">
            <mxPoint x="-30" y="1050" as="sourcePoint" />
            <mxPoint x="-30" y="1130" as="targetPoint" />
          </mxGeometry>
        </mxCell>
        <mxCell id="g01qHE_QcyVIwGFeniVf-166" value="" style="endArrow=none;html=1;rounded=0;exitX=0.5;exitY=0;exitDx=0;exitDy=0;entryX=0.5;entryY=1;entryDx=0;entryDy=0;" edge="1" parent="1" source="g01qHE_QcyVIwGFeniVf-68" target="g01qHE_QcyVIwGFeniVf-62">
          <mxGeometry relative="1" as="geometry">
            <mxPoint x="75" y="1210" as="sourcePoint" />
            <mxPoint x="-10" y="1170" as="targetPoint" />
          </mxGeometry>
        </mxCell>
        <mxCell id="g01qHE_QcyVIwGFeniVf-167" value="" style="endArrow=none;html=1;rounded=0;exitX=0.5;exitY=0;exitDx=0;exitDy=0;entryX=0.5;entryY=1;entryDx=0;entryDy=0;" edge="1" parent="1" source="g01qHE_QcyVIwGFeniVf-160" target="g01qHE_QcyVIwGFeniVf-62">
          <mxGeometry relative="1" as="geometry">
            <mxPoint x="5" y="1210" as="sourcePoint" />
            <mxPoint x="-30" y="1170" as="targetPoint" />
          </mxGeometry>
        </mxCell>
        <mxCell id="g01qHE_QcyVIwGFeniVf-168" value="" style="endArrow=none;html=1;rounded=0;exitX=0.5;exitY=0;exitDx=0;exitDy=0;entryX=0.25;entryY=1;entryDx=0;entryDy=0;" edge="1" parent="1" source="g01qHE_QcyVIwGFeniVf-67" target="g01qHE_QcyVIwGFeniVf-62">
          <mxGeometry relative="1" as="geometry">
            <mxPoint x="-65" y="1210" as="sourcePoint" />
            <mxPoint x="-30" y="1170" as="targetPoint" />
          </mxGeometry>
        </mxCell>
        <mxCell id="g01qHE_QcyVIwGFeniVf-169" value="last_name" style="ellipse;whiteSpace=wrap;html=1;align=center;" vertex="1" parent="1">
          <mxGeometry x="-80" y="1200" width="80" height="40" as="geometry" />
        </mxCell>
        <mxCell id="g01qHE_QcyVIwGFeniVf-170" value="" style="endArrow=none;html=1;rounded=0;exitX=0.5;exitY=0;exitDx=0;exitDy=0;entryX=0.5;entryY=1;entryDx=0;entryDy=0;" edge="1" parent="1" source="g01qHE_QcyVIwGFeniVf-169" target="g01qHE_QcyVIwGFeniVf-62">
          <mxGeometry relative="1" as="geometry">
            <mxPoint x="35" y="1210" as="sourcePoint" />
            <mxPoint x="-30" y="1170" as="targetPoint" />
          </mxGeometry>
        </mxCell>
        <mxCell id="g01qHE_QcyVIwGFeniVf-171" value="last_name" style="ellipse;whiteSpace=wrap;html=1;align=center;" vertex="1" parent="1">
          <mxGeometry x="-209.37" y="340" width="80" height="40" as="geometry" />
        </mxCell>
      </root>
    </mxGraphModel>
  </diagram>
</mxfile>
